<?xml version="1.0" encoding="utf-8"?>
<!-- Generator: Adobe Illustrator 16.0.0, SVG Export Plug-In . SVG Version: 6.00 Build 0)  -->
<!DOCTYPE svg PUBLIC "-//W3C//DTD SVG 1.1//EN" "http://www.w3.org/Graphics/SVG/1.1/DTD/svg11.dtd">
<svg version="1.1" id="Layer_1" xmlns="http://www.w3.org/2000/svg" xmlns:xlink="http://www.w3.org/1999/xlink" x="0px" y="0px"
	 width="293.704px" height="146.976px" viewBox="0 0 293.704 146.976" enable-background="new 0 0 293.704 146.976"
	 xml:space="preserve">
<path fill-rule="evenodd" clip-rule="evenodd" d="M50.3,48.787c63.996,0,127.991,0,192.512,0c-0.805-0.461-1.162-0.708-1.553-0.885
	c-21.033-9.536-42.049-19.11-63.119-28.559c-3.957-1.774-6.525-4.31-7.008-8.753c-0.764-7.047,5.627-12.343,12.311-9.891
	c3.584,1.314,6.953,3.235,10.381,4.957c23.037,11.574,46.061,23.173,69.096,34.752c8.006,4.024,16.023,8.024,24.043,12.018
	c2.867,1.428,5.559,3.233,6.342,6.439c0.559,2.285,0.439,4.825,0.191,7.206c-1.74,16.742-3.592,33.472-5.406,50.206
	c-0.75,6.912-1.488,13.826-2.238,20.738c-0.326,3.009-1.398,5.656-3.729,7.708c-1.781,1.568-3.85,2.253-6.203,2.252
	c-30.52-0.007-61.041,0.009-91.562-0.018c-4.727-0.005-8.02-2.538-9.096-7.186c-3.207-13.832-6.299-27.69-9.422-41.541
	c-1.742-7.728-3.496-15.453-5.156-23.199c-0.322-1.498-1.279-2.127-2.492-2.611c-7.521-3.004-15.072-2.962-22.688-0.301
	c-1.607,0.562-2.359,1.396-2.738,3.12c-4.676,21.311-9.433,42.604-14.212,63.891c-1.199,5.342-4.419,7.837-9.897,7.838
	c-30.154,0.007-60.309,0.008-90.463,0c-5.692-0.002-9.288-3.172-9.917-8.861c-1.862-16.852-3.669-33.709-5.503-50.563
	c-0.904-8.307-1.868-16.607-2.707-24.92c-0.356-3.528,0.681-6.552,4.042-8.314c10.253-5.377,20.483-10.801,30.794-16.065
	c24.21-12.362,48.491-24.586,72.676-36.995c5.374-2.757,9.797-0.501,11.89,2.43c3.142,4.4,2.584,12.345-4.017,15.278
	c-21.326,9.476-42.538,19.21-63.793,28.845c-0.488,0.221-0.975,0.443-1.462,0.665C50.231,48.573,50.266,48.68,50.3,48.787z
	 M179.496,71.823c0.074,0.471,0.119,0.888,0.207,1.296c3.887,17.738,7.795,35.471,11.627,53.22c0.311,1.446,1.15,1.298,2.119,1.298
	c24.291-0.001,48.582-0.013,72.873,0.028c1.477,0.003,1.949-0.428,2.102-1.915c1.354-13.285,2.801-26.561,4.215-39.84
	c0.496-4.655,0.977-9.311,1.477-14.087C242.5,71.823,211.033,71.823,179.496,71.823z M114.22,71.812c-31.67,0-63.075,0-94.728,0
	c1.989,18.637,3.965,37.154,5.946,55.719c25.624,0,51.045,0,76.573,0C106.081,108.957,110.134,90.459,114.22,71.812z"/>
</svg>
